<?xml version="1.0" encoding="utf-8"?>
<!-- Generator: Adobe Illustrator 22.1.0, SVG Export Plug-In . SVG Version: 6.00 Build 0)  -->
<svg version="1.1" id="Capa_1" xmlns="http://www.w3.org/2000/svg" xmlns:xlink="http://www.w3.org/1999/xlink" x="0px" y="0px"
	 viewBox="0 0 150 150" style="enable-background:new 0 0 150 150;" xml:space="preserve">
<style type="text/css">
	.st0{fill:#282828;}
</style>
<path class="st0" d="M149.9,38.7c-0.7-15.6-7.9-30.2-23.8-35.3c-2.8-0.9-5.7-1.5-8.6-1.9C104.9,0.1,91.3,3.5,82.8,13
	c-2,2.3-6.3,7.9-7.8,12.5c-1.6-4.7-5.8-10.2-7.8-12.5C58.7,3.5,45.1,0.1,32.5,1.6c-3,0.4-5.9,1-8.6,1.9C7.9,8.5,0.7,23.1,0.1,38.7
	c-1.2,27.6,18.1,49.1,35.8,67.9c8.4,8.9,16.9,17.7,25.2,26.6c4.7,5,9.5,9.9,13.4,15.4c-0.1-0.1,10.9-11.8,11.7-12.6
	c5.1-5.4,10.2-10.8,15.3-16.2c4.2-4.4,8.4-8.8,12.6-13.2C131.9,87.9,151.2,66.4,149.9,38.7z M89.2,29.2c0.9-1.9,2.3-3,4.1-3
	c0,0,0,0,0,0c2.6,0,4.4,1.4,4.8,3.8c0.5,3.1-1.6,7.6-5,8.7c-0.3,0.1-0.7,0.2-1,0.2c-0.8,0-1.6-0.4-2.2-1C88.3,36,88,32,89.2,29.2z
	 M86.4,45.5c1.9-0.2,3.9,1.2,4.8,3.2c0.6,1.5,0.7,3.3,0.2,5.5c-0.5,2-1.3,3.9-2.4,5.6c-0.4,0.6-0.9,0.9-1.4,1c-0.1,0-0.2,0-0.3,0
	c-2.3,0-4.4-5.1-4.6-5.7c-1.1-2.9-1-5.7,0.3-7.6C83.9,46.4,85.1,45.6,86.4,45.5z M84.9,80.7c-0.5,0.8-2.8,5-4.7,5.2h0
	c0,0-0.1,0-0.1,0c-0.2,0-0.3,0-0.4-0.1c-0.9-0.3-1.6-1.5-2.5-4.6L77,80.9c-1.5-4.6-0.9-8,1.7-9.6c1.1-0.7,2.5-1,3.7-0.7
	c1.3,0.3,2.3,1.1,3,2.3C86.6,75.1,86.5,77.7,84.9,80.7z M75.4,33.4c1-1,2.4-1.5,3.7-1.4c1.4,0.2,2.6,1,3.4,2.2
	c1.4,2.2,1.3,4.8-0.3,7.5c-0.9,1.5-2,2.8-3.1,4.1c-0.5,0.5-0.9,0.6-1.3,0.6c-0.1,0-0.1,0-0.2,0c-2.2-0.3-3.7-5.5-3.7-5.6
	C73.1,37.8,73.6,35.1,75.4,33.4z M71.4,54.8c0.1,0,0.4-0.1,0.6-0.2c0.4-0.2,0.8-0.3,1.2-0.4c1.5-0.1,2.7,0.4,3.6,1.5
	c1.2,1.5,1.5,3.9,0.9,5.9c-0.4,1.1-1,2.1-1.4,2.8c-0.1,0.2-0.3,0.4-0.4,0.6c-0.3,0.5-0.6,1.1-1.1,1.5c-0.4,0.4-0.9,0.5-1.2,0.5
	c-0.1,0-0.1,0-0.2,0h0c-2.3-0.2-4.2-5.6-4.2-5.7c-0.4-1.1-0.4-2.1-0.2-3.1C69,58.3,69.9,54.8,71.4,54.8z M69.2,86.4
	c-0.5,0.7-1.1,1.2-1.8,1.3h0c-0.1,0-0.2,0-0.3,0c0,0-0.1,0-0.1,0c-2.3-0.1-5-5.3-5-5.3c-1.2-2.4-1.4-4.6-0.5-6.5
	c0.8-1.8,2.2-2.8,3.9-2.6c2.2,0.2,4.4,2.2,5,4.6C70.7,79.4,70.8,84.1,69.2,86.4z M65.5,38.5c-2.3-0.1-4.4-5.7-4.4-5.7
	c-0.9-2.6-0.5-5.1,1-7c0.7-0.8,1.7-1.3,2.9-1.4c1.3,0,2.6,0.5,3.4,1.4c1.6,1.7,1.9,4,1.1,6.7c0,0.1-1.9,5.9-3.9,6 M56.8,44.3
	c1-1.1,2.6-1.6,4.3-1.4c3.6,0.5,4.9,4,5,6.7c0,0.8,0,3.4-1.5,4.9c-0.6,0.6-1.3,0.9-2.2,0.9c0,0,0,0,0,0h0c-0.2,0-0.3,0-0.5,0
	c-3.1-0.4-5.5-4.7-6-6.8C55.4,47,55.7,45.5,56.8,44.3z M49.9,41.6c-2.8,0-5.7-4.5-6.2-6c-0.7-2.3,0.4-5.3,2.2-6.6
	c1.4-0.9,3-0.7,4.4,0.5c2.1,1.7,2.9,5,2.7,7.5c-0.2,1.9-0.7,3.3-1.5,4c-0.3,0.3-0.7,0.5-1.2,0.6C50.2,41.6,50.1,41.6,49.9,41.6z
	 M53.3,66.9c-2.4-3.2-3-6.3-1.5-9c0.5-1,1.4-1.6,2.5-1.8c1.2-0.2,2.6,0.2,3.6,1.1c2,1.8,2.9,4.6,2.5,7.5c-0.2,1.2-0.5,2.5-1.1,3.8
	c-0.4,1-1.1,1.3-1.5,1.4c-0.1,0-0.2,0-0.4,0C56.2,70,54.8,69,53.3,66.9z M57.6,98.1c-0.7-2.5,0.3-5.2,2.5-6.4c1.9-1.1,4-0.7,5.7,1.1
	c1.2,1.2,1.8,3.4,1.6,6c-0.2,2.1-0.9,4.9-2.7,6.2l0,0c-0.1,0.1-0.3,0.2-0.6,0.2c-0.1,0-0.3,0-0.4-0.1
	C61.7,104.5,57.8,98.9,57.6,98.1z M70.7,124.5c-0.7,1.9-2.1,3.6-3.1,4.7l0,0c-0.2,0.2-0.5,0.4-0.8,0.4c-0.1,0-0.2,0-0.4-0.1
	c-1.8-0.6-4.2-8.1-4.2-8.6c-0.3-3.1,1.4-4.6,2.9-5c2-0.5,4.7,0.7,5.9,3.7C71.4,121.1,71.4,122.7,70.7,124.5z M73.9,112.2L73.9,112.2
	c-0.1,0-0.2,0-0.4,0c-0.1,0-0.2,0-0.2,0c-1.1-0.1-2-0.9-2.7-2.4c-1-2.2-1.3-4.2-1-6c0.6-3.1,2.9-4.5,4.9-4.3c2,0.1,4.2,1.7,4.3,5
	c0.1,2.2-0.9,4.4-2.7,6.4C75.3,111.7,74.6,112.1,73.9,112.2z M82.6,126.6c-0.4,0.5-2.4,2.6-4.3,2.6c-0.3,0-0.6-0.1-0.9-0.2h0
	c-0.2-0.1-0.4-0.2-0.6-0.3c-2.3-1.7-1.1-7.4-0.8-8.4c0.7-2.2,3.1-4,5.3-4.1c0,0,0,0,0.1,0c1.6,0,2.9,1,3.5,2.7
	C85.6,121.8,84.2,124.8,82.6,126.6z M86.3,102.3c-0.3,0.1-0.7,0.2-1.2,0.2c-0.7,0-1.6-0.3-2.7-1.1c-1.8-1.5-1.9-5.5-1.8-7.3
	c0.2-2.4,2.2-4.3,4.8-4.4c1.5-0.1,2.8,0.4,3.7,1.3c0.6,0.6,1.3,1.7,1.2,3.4C90.2,96.4,89,101.2,86.3,102.3z M97.6,71.1
	c-0.7,1.7-3.6,6-6.2,6.1c0,0-0.1,0-0.1,0c-0.3,0-0.5-0.1-0.8-0.2c-1.7-0.7-2.2-3.7-2.5-5.7l-0.1-0.5c-0.3-1.9,0.4-4.2,1.8-5.7
	c1.2-1.2,2.6-1.7,4.2-1.5c1.4,0.2,2.5,1,3.3,2.3C98.1,67.5,98.2,69.5,97.6,71.1z M106.5,44.3c-0.4,2.8-2.5,5-4.2,6.3
	c-1,0.7-2.3,1.8-3.6,1.8c-0.3,0-0.6-0.1-0.8-0.2h0c-0.7-0.3-1.1-1-1.3-2c-0.8-3.9-0.2-9.1,4-11c1.5-0.7,3-0.6,4.2,0.3
	C106.1,40.6,106.8,42.4,106.5,44.3z"/>
</svg>
